<svg xmlns="http://www.w3.org/2000/svg" data-name="Layer 1" viewBox="0 0 96 120" x="0px" y="0px"><title>arrowsArtboard 8</title><path d="M45.17,90.83h0a4,4,0,0,0,.61.5c.1.07.21.11.31.17a2.34,2.34,0,0,0,.79.33c.11,0,.22.08.34.1a3.92,3.92,0,0,0,1.57,0c.12,0,.22-.07.34-.1a2.34,2.34,0,0,0,.79-.33c.1-.06.21-.1.31-.17a4,4,0,0,0,.61-.5h0l29-29a4,4,0,0,0-5.66-5.66L52,78.34V8a4,4,0,0,0-8,0V78.34L21.83,56.17a4,4,0,0,0-5.66,5.66Z"/><text x="0" y="111" fill="#000000" font-size="5px" font-weight="bold" font-family="'Helvetica Neue', Helvetica, Arial-Unicode, Arial, Sans-serif">Created by olcay kurtulus</text><text x="0" y="116" fill="#000000" font-size="5px" font-weight="bold" font-family="'Helvetica Neue', Helvetica, Arial-Unicode, Arial, Sans-serif">from the Noun Project</text></svg>